<svg width="70" height="70" viewBox="0 0 70 70" fill="none" xmlns="http://www.w3.org/2000/svg">
<rect x="5.59998" y="70" width="70" height="10.5" transform="rotate(-90 5.59998 70)" fill="black"/>
<rect x="16.1" width="48.3" height="10.5" fill="black"/>
<rect width="34.3" height="10.5" transform="translate(5.59998 29.75)" fill="black"/>
<path d="M64.4 -1.5299e-06C59.8038 -1.32899e-06 55.2525 0.905301 51.0061 2.66422C46.7597 4.42313 42.9013 7.00121 39.6513 10.2513C36.4012 13.5013 33.8232 17.3597 32.0642 21.6061C30.3053 25.8525 29.4 30.4037 29.4 35C29.4 39.5963 30.3053 44.1475 32.0642 48.3939C33.8232 52.6403 36.4012 56.4987 39.6513 59.7487C42.9013 62.9988 46.7597 65.5769 51.0061 67.3358C55.2525 69.0947 59.8038 70 64.4 70L64.4 58.8218C61.2717 58.8218 58.174 58.2056 55.2838 57.0084C52.3936 55.8113 49.7675 54.0566 47.5555 51.8445C45.3434 49.6325 43.5887 47.0064 42.3916 44.1162C41.1944 41.226 40.5782 38.1283 40.5782 35C40.5782 31.8717 41.1944 28.774 42.3916 25.8838C43.5887 22.9936 45.3434 20.3675 47.5555 18.1555C49.7675 15.9434 52.3936 14.1887 55.2838 12.9915C58.174 11.7944 61.2717 11.1782 64.4 11.1782L64.4 -1.5299e-06Z" fill="black"/>
</svg>
