<svg width="30" height="30" viewBox="0 0 30 30" fill="none" xmlns="http://www.w3.org/2000/svg">
<path d="M13.2 5.43002C12.46 6.76002 10.97 9.42002 9.89 11.35C4.84 20.35 1.3 26.69 1.24 26.84C1.19 26.98 1.35 27 2.68 27H4.18L7.21 21.75L10.24 16.5H12.42H14.6V21.76V27.02L17.03 26.97C19.52 26.92 20.09 26.84 21.42 26.39C25.15 25.14 27.8 21.89 28.67 17.53C28.93 16.21 28.9 13.58 28.61 12.23C27.81 8.47002 25.74 5.66002 22.65 4.15002C20.8 3.24002 19.53 3.00002 16.55 3.01002H14.55L13.2 5.43002ZM19.8 6.26002C21.98 6.76002 23.93 8.43002 24.96 10.64C26.18 13.29 26.18 16.71 24.95 19.36C23.68 22.12 21.41 23.71 18.39 23.96L17.6 24.03V15V5.97002L18.38 6.04002C18.8 6.07002 19.44 6.17002 19.8 6.26002ZM14.57 13.47C14.54 13.49 13.96 13.49 13.27 13.48L12.01 13.45L13.28 11.24L14.55 9.03002L14.58 11.23C14.59 12.44 14.59 13.45 14.57 13.47Z" fill="#111111"/>
</svg>
